<svg xmlns="http://www.w3.org/2000/svg" viewBox="0 0 1774 887"><path fill="#256af9" stroke="#256af9" d="M651.553 204.758c-1.92 8.745-11.651 18.242-18.69 18.242-3.886 0-2.443 1.767 2.789 3.417 7.623 2.402 11.904 6.62 14.801 14.583l2.365 6.5 1.108-3c4.174-11.304 7.637-15.198 15.983-17.97 6.197-2.058 6.337-2.772.841-4.287-8.804-2.427-13.566-7.189-15.993-15.993-1.357-4.923-2.349-5.385-3.204-1.492m-51.17 26.825c-9.837 27.63-13.307 31.645-33.629 38.901-10.826 3.865-11.451 4.703-4.785 6.411 19.646 5.036 28.923 13.929 36.084 34.596 1.526 4.405 3.129 8.009 3.561 8.009.432 0 1.817-2.881 3.077-6.401 8.076-22.559 14.558-29.129 35.559-36.041 3.712-1.221 6.75-2.373 6.75-2.558 0-.185-3.038-1.337-6.75-2.558-21.101-6.945-27.772-13.266-34.799-32.976-3.063-8.59-4.1-10.102-5.068-7.383M405.5 266.528c-48.172 7.733-90.323 39.033-111.657 82.913-2.831 5.823-4.815 10.919-4.408 11.323.408.405 17.689.706 38.403.668 41.984-.075 44.216-.297 75.741-7.532 39.408-9.045 58.884-5.67 77.968 13.512 26.261 26.395 25.884 66.438-.874 92.822-13.249 13.065-28.178 17.314-56.959 16.213l-17.787-.68.331-47.634c.182-26.198.701-48.645 1.153-49.883 1.984-5.429-3.512-2.086-38.159 23.212-99.716 72.81-106.517 78.189-111.041 87.812-3.96 8.425-4.241 14.986-3.97 92.726.294 84.478-.223 79.34 8.592 85.481 3.973 2.768 5.14 3.047 14.051 3.357 48.557 1.686 98.176-33.727 120.597-86.069 2.695-6.29 5.188-10.237 8.922-14.123 8.632-8.984 9.703-9.289 35.097-9.985 23.473-.643 32.744-2.008 48.781-7.183 42.812-13.814 77.972-49.543 92.266-93.76 27.245-84.278-24.341-173.86-110.511-191.909-12.828-2.686-52.967-3.459-66.536-1.281m627.844 61.492c-34.18 6.937-30.131 55.948 4.656 56.362 35.791.425 39.042-52.253 3.5-56.704-2.2-.276-5.87-.122-8.156.342M700.5 339.772c-8.891.22-11.24.592-12.25 1.941-.983 1.312-1.25 25.788-1.25 114.478V569h46.978l.261-40.75.261-40.75 34-.568c33.292-.556 34.184-.624 42.822-3.266 30.132-9.218 48.055-30.663 51.565-61.697 4.72-41.736-23.49-76.079-66.897-81.444-5.608-.693-75.609-1.245-95.49-.753m585.167 24.895c-.367.366-.667 10.941-.667 23.5V411h-12.465c-15.358 0-14.535-1.067-14.535 18.852 0 19.845-1.319 18.148 14.107 18.148H1285v39.84c0 50.676 1.125 56.19 14.119 69.184 13.541 13.541 42.501 19.015 64.011 12.101 9.798-3.15 9.646-2.494 4.836-20.901-5.151-19.712-4.271-18.383-10.973-16.578-11.241 3.027-20.61.153-24.928-7.648l-2.436-4.399-.064-35.549-.065-35.55 18.5-.5 18.5-.5v-36l-18.451-.5-18.451-.5.266-21.257c.147-11.691-.018-22.153-.366-23.25-.606-1.908-1.535-1.993-21.899-1.993-11.696 0-21.566.3-21.932.667M734 413.486v31.625l29.25-.305c28.066-.294 29.452-.399 34.25-2.605 25.636-11.79 23.485-49.579-3.323-58.35-2.377-.778-13.661-1.343-31.927-1.597l-28.25-.393v31.625m225.919-4.653c-3.62.945-9.179 3.282-12.354 5.193-5.488 3.303-16.565 14.023-16.565 16.031 0 .519-.337.943-.75.943s-.902-3.938-1.087-8.75c-.185-4.813-.803-9.312-1.372-10-1.952-2.356-39.466-1.726-40.756.684-.688 1.286-1.035 27.789-1.035 79V569h44.868l.354-43.75c.337-41.657.457-44.057 2.512-50.163 6.052-17.987 18.887-26.905 37.126-25.796 4.752.289 9.54.798 10.64 1.13 3.564 1.078 4.631-.914 9.1-17 5.261-18.938 5.251-18.738 1.15-21.244-8.399-5.133-20.22-6.375-31.831-3.344m207.454.146c-10.321 2.706-18.92 7.42-26.087 14.302l-6.286 6.036v-6.936c0-11.625.484-11.381-22.522-11.381-18.204 0-19.472.121-20.449 1.946-.702 1.312-.958 26.944-.785 78.75l.256 76.804 22.196.269 22.197.269.315-47.769c.287-43.678.474-48.197 2.177-52.769 10.047-26.96 45.843-30.911 57.2-6.313l2.915 6.313.293 50.25.294 50.25h45.035l-.359-55.25c-.403-62.119-.477-62.8-8.36-77.803-11.558-21.995-41.59-33.9-68.03-26.968M1016.2 412.2c-.913.913-1.2 19.822-1.2 79V569h45v-77.8c0-59.178-.287-78.087-1.2-79-1.696-1.696-40.904-1.696-42.6 0m365.8-.117c0 .976 5.631 14.58 31.216 75.417 9.386 22.319 20.216 47.571 28.567 66.608l5.969 13.608-4.143 10.453c-7.045 17.772-11.563 21.406-26.353 21.2l-9.243-.13-.969 3.631c-9.435 35.371-9.466 32.013.316 34.117 12.729 2.737 30.556.963 41.326-4.113 17.938-8.454 23.106-16.185 42.033-62.874 11.27-27.799 24.003-58.473 42.757-103a59378.289 59378.289 0 0 0 18.106-43.028c2.43-5.79 4.418-11.078 4.418-11.75 0-1.772-41.933-1.746-44.253.028-.9.688-3.644 6.425-6.099 12.75-19.706 50.774-24.156 62.334-28.708 74.574-2.849 7.659-5.499 14.277-5.889 14.705-.39.429-3.771-7.221-7.514-17-22.002-57.492-31.95-81.917-34.225-84.029-2.364-2.195-2.977-2.25-24.868-2.25-15.443 0-22.444.338-22.444 1.083" fill-rule="evenodd"/><path fill="#5f3bf8" stroke="#5f3bf8" d="M652.082 203.168c-.045.918-.385 2.458-.756 3.424-.519 1.353-.29 1.608 1 1.113.96-.368 1.674-.158 1.674.493 0 .624.248.888.55.585.303-.303-.11-2.065-.918-3.917-.808-1.851-1.506-2.615-1.55-1.698m3.244 7.864c.34 1.172-.338 1.507-2.88 1.422-3.13-.104-7.885 4.018-7.932 6.877-.018 1.073-3.579 3.681-4.955 3.629-.583-.022.178-.711 1.691-1.532 4.516-2.45 3.149-2.309-3.698.381l-6.447 2.534 5.049 1.709c8.916 3.019 12.88 7.349 15.257 16.668l1.186 4.649 2.331-6.434c1.581-4.366 3.63-7.68 6.371-10.306 3.442-3.298 3.682-3.773 1.62-3.208l-2.419.662 2.493-1.457c1.612-.942 2.716-1.097 3.123-.438.423.684 1.308.656 2.691-.085 1.134-.607 3.104-1.133 4.377-1.171l2.316-.067-2.5-1.086c-1.375-.597-4.862-2.117-7.75-3.377-5.611-2.449-7.035-2.434-2.5.026 1.513.821 2.274 1.51 1.691 1.532-1.362.051-4.928-2.545-4.984-3.629-.024-.457-1.063-2.631-2.309-4.831-1.246-2.2-2.066-3.31-1.822-2.468M668 224c0 .55.477 1 1.059 1s.781-.45.441-1-.816-1-1.059-1-.441.45-.441 1m-16.559 13.418c2.223 1.812 3.559 2.03 3.559.582 0-.55-.413-1-.918-1-.505 0-1.743-.262-2.75-.582-1.676-.532-1.667-.447.109 1M319.872 312.75c-1.243 1.586-1.208 1.621.378.378.962-.755 1.75-1.543 1.75-1.75 0-.823-.821-.294-2.128 1.372m716.392 15.968c1.52.229 3.77.223 5-.014 1.23-.237-.014-.425-2.764-.418-2.75.008-3.756.202-2.236.432m-18.827 8.532-2.937 3.25 3.25-2.937c1.788-1.615 3.25-3.078 3.25-3.25 0-.773-.825-.092-3.563 2.937m-717.47 1.303c-1.207 1.954-1.95 3.797-1.651 4.097.3.299 1.485-1.3 2.635-3.553 2.57-5.038 1.991-5.358-.984-.544M1058 336.378c0 .207.787.995 1.75 1.75 1.586 1.243 1.621 1.208.378-.378-1.307-1.666-2.128-2.195-2.128-1.372m-369.445 5.898c-1.399 2.134-1.537 14.209-1.309 114.305L687.5 568.5l23.25.268 23.25.269V487.164l33.25-.405c30.245-.368 33.973-.601 41.25-2.576 32.831-8.911 52.337-32.625 54.209-65.903 2.114-37.57-18.696-65.749-55.709-75.436-8.184-2.142-10.515-2.238-62.691-2.589l-54.191-.365-1.563 2.386m-242.805 6.386c.688.278 1.813.278 2.5 0 .688-.277.125-.504-1.25-.504s-1.937.227-1.25.504m564.445 10.838c.02 1.65.244 2.204.498 1.231.254-.973.237-2.323-.037-3-.274-.677-.481.119-.461 1.769m-708.926 1.193c.973.254 2.323.237 3-.037.677-.274-.119-.481-1.769-.461-1.65.02-2.204.244-1.231.498m763.847.475c-.064.918-.375 2.493-.692 3.5-.545 1.736-.515 1.739.568.051.628-.98.939-2.555.691-3.5-.406-1.549-.462-1.554-.567-.051m220.57 3.479c-.377.378-.686 10.948-.686 23.49v22.803l-12.75.28-12.75.28v36l12.75.28 12.75.28.017 38.72c.014 29.935.346 40.271 1.466 45.555 3.892 18.372 14.805 30.326 33.273 36.449 14.256 4.727 46.25 2.733 51.165-3.188.587-.708-.624-7.133-3.318-17.605l-4.241-16.491-2.931.238c-1.612.13-6.081.5-9.931.822-10.97.916-18.383-3.824-20.543-13.137-.5-2.158-.92-19.11-.933-37.673L1329 448h17.878c13.994 0 18.126-.3 19.024-1.382.789-.95 1.061-6.659.873-18.25l-.275-16.868-18.732-.272-18.731-.272-.269-23.228-.268-23.228-21.064-.269c-11.585-.148-21.373.039-21.75.416m-271.761 6.166c1.113 2.022 4.478 6.197 3.634 4.508-.349-.698.334-1.309 1.676-1.5 3.44-.488 2.397-2.18-2.162-3.508-3.718-1.083-3.994-1.039-3.148.5m45.084 3.676c-.68.819-1.597 1.266-2.038.993-1.099-.679-5.971 1.253-5.971 2.368 0 2.029 5.034.724 7.62-1.975 1.515-1.581 2.5-2.875 2.19-2.875-.311 0-1.121.67-1.801 1.489M403.5 377.538c-7.095 3.528-124.536 90.594-123.803 91.781.337.545.139.698-.439.34-3.227-1.994-16.452 11.253-21.07 21.106L255.5 496.5l-.294 78.5c-.161 43.175-.027 79.972.3 81.771 1.434 7.915 10.791 14.17 21.251 14.207 34.236.12 70.708-17.496 94.884-45.831 3.475-4.072 6.03-7.909 5.678-8.526-.352-.616-.273-.789.175-.384.997.903 6.865-6.847 6.11-8.069-.297-.481.145-1.727.983-2.771 1.444-1.798 1.466-1.78.433.353-.6 1.237-.892 2.25-.65 2.25.983 0 9.852-16.208 12.716-23.24 3.556-8.732 10.679-17.366 17.74-21.504 4.56-2.672 5.006-2.729 23.661-3.006 20.563-.305 33.796-1.952 47.502-5.913 9.714-2.806 27.295-10.421 31.011-13.43 1.375-1.114-.734-.311-4.687 1.784-6.106 3.236-7.385 3.599-8.5 2.412-.945-1.005-.963-1.199-.063-.691.688.388 1.25.282 1.25-.236 0-.947-3.751-2.519-5.362-2.247-.912.154-3.552-2.906-3.606-4.179-.018-.413.611-.75 1.397-.75.785 0 2.023-.588 2.75-1.306 1.825-1.804 4.821-2.837 4.821-1.663 0 .533-.675.969-1.5.969s-1.5.45-1.5 1 1.462 1.006 3.25 1.014c1.788.007 4.262.285 5.5.616 2.913.781 3.053-1.827.25-4.63-2.065-2.065-7-2.77-7-1 0 1.558-2.614 1.183-6.343-.912-1.872-1.051-4.698-2.05-6.28-2.22-1.583-.169-3.765-.884-4.85-1.588-1.084-.704-2.997-1.28-4.25-1.28-1.252 0-2.164-.542-2.027-1.205.138-.662-.29-1.225-.95-1.25-3.165-.119-3.641-2.545-.5-2.545 1.76 0 3.2-.45 3.2-1 0-.93-1.722-1.386-4.774-1.265-.701.028-2.847-1.476-4.769-3.342-1.962-1.906-4.471-3.362-5.725-3.323-2.136.068-2.146.107-.232.93 1.963.843 1.65 1-2 1-.275 0-.387-.286-.25-.635.137-.35-.762-1.01-2-1.468-1.238-.458-2.25-1.522-2.25-2.365 0-.842-.675-1.532-1.5-1.532s-1.5-.45-1.5-1 1.125-1 2.5-1 2.5-.45 2.5-1 1.152-1 2.559-1c1.451 0 2.292-.433 1.941-1-.34-.55-.029-1.007.691-1.015.963-.012.913-.299-.191-1.087-1.205-.861-1.058-.975.749-.579 1.237.271 2.501.085 2.809-.413.308-.498-.479-.913-1.749-.921-1.858-.013-2.016-.205-.809-.985 1.125-.727.625-.969-2-.969s-3.125.242-2 .969c1.295.837 1.271.971-.179.985-.923.008-2.353-.66-3.178-1.485-2.11-2.11-2.436-1.891-1.868 1.25.274 1.512.14 2.415-.299 2.006-.438-.409-1.425.154-2.193 1.25-1.658 2.367-6.062 2.629-8.842.526-2.17-1.642-3.849-2.002-3.012-.646.301.487-.532 1.092-1.851 1.344-1.798.344-2.666-.129-3.467-1.886-.763-1.675-.758-2.344.017-2.344.597 0 .833-.66.523-1.466-.443-1.157.062-1.341 2.393-.875 3.319.664 4.431-2.102 1.206-2.999-.962-.268.837-.273 4-.011 6.602.545 7.261-.12 2.21-2.23-1.947-.814-3.271-1.916-2.941-2.449.344-.557-.916-.97-2.96-.97-1.957 0-3.559-.45-3.559-1s-.45-1-1-1-1 1.35-1 3-.45 3-1 3-1-.477-1-1.059-.443-.785-.985-.45c-1.006.622-6.914-4.777-7.14-6.525A21.062 21.062 0 0 0 427.5 482c-.137-.55-.306-1.45-.375-2s-1.137-1.091-2.375-1.203c-1.238-.111 3.375-.47 10.25-.797 11.587-.551 10.983-.609-8.277-.797L405.945 477l.278-48.75c.152-26.812.663-49.538 1.134-50.5 1.041-2.127.097-2.179-3.857-.212m618.191 1.551c1.5 1.857 10.831 5.267 12.534 4.582.701-.282.15-.556-1.225-.607-2.002-.076-2.201-.291-1-1.079 2.248-1.476-.559-3.033-5.048-2.801-1.952.101-4.202-.211-5-.692-1.178-.711-1.227-.598-.261.597M1051 380.5c-1.375.786-2.024 1.445-1.441 1.465.582.019 1.932-.626 3-1.433 2.469-1.868 1.68-1.884-1.559-.032m-316.764 33.181.264 31.819 23.5.279c26.426.313 35.093-.616 42.289-4.533 17.573-9.564 21.076-35.03 6.785-49.32-8.933-8.933-10.407-9.255-44.338-9.693l-28.764-.371.264 31.819m228.175-5.197c-11.468 2.495-24.355 10.835-29.429 19.045-3.225 5.219-3.982 4.292-3.982-4.874 0-11.967.582-11.655-21.706-11.655-13.852 0-18.307.311-19.16 1.338-.792.954-1.121 23.529-1.147 78.75l-.037 77.412 22.025.269 22.025.269.015-41.769c.012-33.179.316-43.049 1.482-47.992 5.307-22.509 22.14-34.017 44.232-30.238 9.429 1.613 8.651 2.578 14.137-17.515 4.725-17.304 4.737-17.169-1.799-20.474-7.749-3.918-16.548-4.766-26.656-2.566m210.346-.516c-13.056 2.379-24.939 8.448-33.21 16.963-5.119 5.27-4.996 5.354-5.356-3.682-.228-5.724-.735-8.076-1.941-8.999-2.26-1.731-37.324-1.776-39.05-.05-.913.913-1.2 19.822-1.2 79V569h44l.016-45.75c.016-49.347.334-53.053 5.274-61.481 10.213-17.428 36.166-21.424 49.409-7.607 7.858 8.199 7.741 7.304 8.301 63.838l.5 50.5h44l.293-47.5c.386-62.564-1.03-74.142-10.87-88.878-11.86-17.76-37.894-28.212-60.166-24.154m-156.007 4.112c-1.643.957-1.75 5.787-1.75 78.989v77.969l22.25-.269 22.25-.269.259-77.5c.241-71.972.138-77.589-1.441-78.75-2.135-1.57-38.906-1.72-41.568-.17m365.25-.164c0 .504 2.642 7.142 5.872 14.75 3.229 7.609 11.158 26.434 17.618 41.834 11.896 28.355 29.381 69.205 37.935 88.625l4.68 10.624-3.703 9.376c-7.551 19.117-13.508 23.827-28.543 22.566-8.155-.683-6.978-2.352-12.382 17.551-5.08 18.706-5.284 17.89 4.922 19.667 23.047 4.013 42.73-1.69 56.258-16.302 7.968-8.605 12.431-17.513 27.862-55.607 9.716-23.983 23.157-56.276 41.207-99 12.132-28.714 22.274-53.394 22.274-54.2 0-.44-9.605-.8-21.345-.8-19.787 0-21.472.14-23.085 1.922-1.63 1.802-19.223 46.166-33.66 84.88-6.333 16.983-7.383 18.873-8.588 15.448-7.357-20.911-38.852-99.169-40.447-100.5-2.341-1.954-46.875-2.746-46.875-.834M484.405 457.25l-1.905 2.25 2.25-1.905c2.114-1.79 2.705-2.595 1.905-2.595-.19 0-1.202 1.012-2.25 2.25m-5 5-1.905 2.25 2.25-1.905c2.114-1.79 2.705-2.595 1.905-2.595-.19 0-1.202 1.012-2.25 2.25M462.5 472.522c-2.75 1.295-4.325 2.44-3.5 2.544 4.876.615 6.104.574 6.594-.218.299-.484.916-.651 1.37-.37.455.281 1.104-.212 1.443-1.095.463-1.207.179-1.453-1.146-.992-1.486.518-1.458.379.18-.889 2.727-2.111.907-1.735-4.941 1.02m-7.687 3.161c.721.289 1.584.253 1.916-.079.332-.332-.258-.568-1.312-.525-1.165.048-1.402.285-.604.604m-5.544 1.01c.973.254 2.323.237 3-.037.677-.274-.119-.481-1.769-.461-1.65.02-2.204.244-1.231.498M420.278 496c.067 7.01.269 9.406.46 5.455l.341-7.044 3.461.404c2.948.344 3.46.102 3.46-1.636 0-1.318.797-2.197 2.25-2.482l2.25-.443-2.25-.744c-1.238-.409-2.25-1.091-2.25-1.515 0-.425-1.542-1.062-3.427-1.415-1.885-.354-3.65-1.192-3.921-1.862-.272-.67-.44 4.407-.374 11.282M452 489.559c0 .857.45 1.281 1 .941.55-.34 1-1.041 1-1.559s-.45-.941-1-.941-1 .702-1 1.559M432 493c1.939 1.253 3 1.253 3 0 0-.55-1.012-.993-2.25-.985-1.819.013-1.963.201-.75.985m22.813 2.683c.721.289 1.584.253 1.916-.079.332-.332-.258-.568-1.312-.525-1.165.048-1.402.285-.604.604M434.5 497c-1.1.473-1.49.891-.867.93.624.038 1.393 1.063 1.711 2.276.685 2.62 1.932 1.712 2.395-1.744.351-2.624-.081-2.819-3.239-1.462m19.054.902c-1.858.727-1.847.788.25 1.336 1.493.391 2.196.124 2.196-.832 0-.773-.113-1.374-.25-1.336-.137.039-1.126.413-2.196.832m7.035 2.954c-.291.47.583.643 1.941.383 1.359-.26 2.47-.645 2.47-.856 0-.773-3.899-.356-4.411.473M430.5 503c.34.55 1.293 1 2.118 1s1.222-.45.882-1c-.34-.55-1.293-1-2.118-1s-1.222.45-.882 1m120.446 9.75-3.446 3.75 3.75-3.446c3.49-3.208 4.21-4.054 3.446-4.054-.167 0-1.854 1.688-3.75 3.75M474 513.81c0 .526.926 1.199 2.057 1.495 1.309.342 1.915.111 1.667-.634-.479-1.438-3.724-2.189-3.724-.861m64.924 10.94-2.424 2.75 2.75-2.424c2.57-2.266 3.209-3.076 2.424-3.076-.179 0-1.416 1.237-2.75 2.75M484 529c0 .55.477 1 1.059 1s.781-.45.441-1-.816-1-1.059-1-.441.45-.441 1m48.872.75c-1.243 1.586-1.208 1.621.378.378 1.666-1.307 2.195-2.128 1.372-2.128-.207 0-.995.788-1.75 1.75m-4 3c-1.243 1.586-1.208 1.621.378.378 1.666-1.307 2.195-2.128 1.372-2.128-.207 0-.995.788-1.75 1.75m-8.539 4.91c0 .885.517.955 1.834.251 1.008-.54 1.833-1.094 1.833-1.232 0-.138-.825-.25-1.833-.25-1.009 0-1.834.554-1.834 1.231M501 547c-.825.533-1.05.969-.5.969s1.675-.436 2.5-.969c.825-.533 1.05-.969.5-.969s-1.675.436-2.5.969m-81.5 12c-.34.55.11 1 1 1s1.34-.45 1-1c-.34-.55-.79-1-1-1-.21 0-.66.45-1 1m28.25-.294c1.238.238 3.262.238 4.5 0 1.238-.239.225-.434-2.25-.434s-3.488.195-2.25.434" fill-rule="evenodd"/><path fill="#050f33" stroke="#050f33" d="M689.25 341.138c-.985.995-1.25 25.162-1.25 114.062V568h46v-81l26.75-.003c48.286-.005 63.621-4.203 81.847-22.409 14.071-14.055 19.828-28.882 19.834-51.088.011-36.018-19.272-60.527-55.299-70.284l-9.632-2.608-53.5-.366c-42.142-.289-53.765-.099-54.75.896m598 23.522-2.25.479V412h-26.046l.273 17.75.273 17.75h25l.528 41.5.529 41.5 2.753 7.866c5.861 16.742 16.522 26.181 35.19 31.156 15.736 4.193 47.549.244 47.474-5.893-.029-2.307-7.56-31.548-8.322-32.311-.256-.255-2.194.017-4.308.604-14.209 3.945-27.232-1.988-28.821-13.13-.337-2.361-.48-19.367-.318-37.792l.295-33.5h17.5c9.625 0 18.063-.364 18.75-.809.919-.595 1.25-5.291 1.25-17.728v-16.919l-18.75-.272-18.75-.272-.5-23.255-.5-23.255-19.5-.404c-10.725-.223-20.513-.189-21.75.074m-883.494 13.584c-1.235 1.235-2.698 2.141-3.251 2.014-.553-.127-2.14.775-3.526 2.005-1.387 1.231-2.084 1.9-1.55 1.487 1.549-1.196 2.571-.875 2.571.809 0 .857.39 1.318.867 1.024.896-.555-.356 7.782-1.431 9.521-.33.533-.499 24.915-.376 54.183l.356 85.515c.134 32.405.484 35.614 3.672 33.644.376-.233.899.708 1.164 2.09.264 1.381.093 2.751-.381 3.044-.473.292-1.33 1.519-1.905 2.726-.574 1.207.211.619 1.745-1.306 3.677-4.615 7.115-8.049 10.789-10.777 1.905-1.415 2.27-1.983 1-1.556-1.961.659-1.964.631-.132-1.457 1.504-1.713 1.973-4.333 2.403-13.409.329-6.925.835-10.512 1.312-9.29.427 1.094.819-10.611.871-26.011.051-15.4.486-29.687.965-31.75l.87-3.75H406v-47.935c0-28.725.391-48.963.975-50.5 1.231-3.236-.165-3.375-3.219-.321M734 414.013v32.124l28.75-.371c32.361-.417 34.634-.831 42.478-7.736 17.252-15.185 13.5-43.234-7.073-52.879L792.5 382.5l-29.25-.306-29.25-.305v32.124m-352-20.905-3.5 3.054 3.219-1.778c1.77-.978 3.443-2.364 3.718-3.081.672-1.75.584-1.704-3.437 1.805m-6.019 4.415c-1.057 1.273-.995 1.42.378.893.902-.347 1.641-1.032 1.641-1.523 0-1.286-.579-1.105-2.019.63M365.5 405c-.34.55-.141 1 .441 1s1.059-.45 1.059-1-.198-1-.441-1-.719.45-1.059 1m599.847 3.084c-12.519 2.117-25.908 10.228-31.847 19.293-4.115 6.28-4.5 5.916-4.5-4.255 0-6.325-.397-9.206-1.379-10.022-.957-.794-7.308-1.061-20.75-.872l-19.371.272-.256 77.75-.256 77.75H931v-42.106c0-44.837.35-48.779 5.169-58.226 7.413-14.529 24.801-22.282 41.857-18.662 3.587.761 6.441.921 6.962.392.485-.494 2.948-8.323 5.472-17.398l4.589-16.5-2.681-2.162c-5.322-4.293-18.06-6.769-27.021-5.254M1167 409.576c-9.363 2.459-19.305 7.974-25.996 14.421-3.428 3.301-6.406 6.003-6.618 6.003-.212 0-.386-3.545-.386-7.878 0-10.648.961-10.218-22.129-9.894l-19.371.272-.256 77.75-.256 77.75H1136v-46.318c0-51.223.107-52.26 6.429-62.135 6.262-9.781 15.641-14.04 29.394-13.348 9.732.489 13.215 1.88 18.601 7.425 8.995 9.263 9.724 14.803 9.357 71.126l-.281 43.251 21.804-.001h21.803l-.33-56.25c-.364-62.274-.215-60.783-7.519-75.22-10.877-21.499-42.093-33.826-68.258-26.954m-150.8 3.624c-.912.912-1.2 19.6-1.2 78V568h45v-76.8c0-58.4-.288-77.087-1.2-78-1.696-1.696-40.904-1.696-42.6 0m367.138 2.05 15.634 37.25c12.53 29.856 26.776 63.157 44.017 102.888 5.811 13.39 5.81 12.408.027 25.82-6.536 15.162-12.216 19.185-26.329 18.65l-8.148-.309-4.625 16.976c-2.544 9.336-4.324 17.318-3.957 17.738 1.285 1.465 14.603 3.702 22.043 3.702 15.237 0 29.211-4.853 38.803-13.478 10.402-9.352 13.677-15.771 35.709-69.987 5.14-12.65 13.142-32 17.781-43 4.639-11 14.299-33.95 21.466-51 11.821-28.119 18.455-43.858 19.916-47.25.422-.978-4.237-1.25-21.446-1.25-16.388 0-22.238.318-22.982 1.25-1.088 1.363-18.333 45.282-31.483 80.182-4.545 12.062-8.622 21.962-9.058 22-.437.037-5.74-12.757-11.785-28.432-22.386-58.054-28.224-72.53-29.745-73.75-1.144-.918-7.62-1.25-24.381-1.25h-22.822l1.365 3.25M417.079 542.583c.048 1.165.285 1.402.604.605.289-.722.253-1.585-.079-1.917-.332-.332-.568.258-.525 1.312m-19.455 37.956c-.965 2.514-.681 3.163.498 1.136.584-1.004.851-2.036.593-2.293-.257-.258-.749.263-1.091 1.157" fill-rule="evenodd"/></svg>